# xmcd CD database file
#
# Track frame offsets:
#	182
#	31895
#	56675
#	97607
#	125962
#	152475
#	177707
#
# Disc length: 2715 seconds
#
# Revision: 0
# Processed by: cddbd v1.5.2PL0 Copyright (c) Steve Scherf et al.
# Submitted via: CDex 1.51
#
DISCID=560a9907
DTITLE=Rene McLean - Watch Out!
DYEAR=1994
DGENRE=Jazz
TTITLE0=Bilad As Sudan [Land Of The Blacks]
TTITLE1=Aida
TTITLE2=What It Is
TTITLE3=Watch Out!
TTITLE4=Jack's Tune
TTITLE5=Jihad
TTITLE6=Uptown
EXTD=YEAR: 1994
EXTT0=
EXTT1=
EXTT2=
EXTT3=
EXTT4=
EXTT5=
EXTT6=
PLAYORDER=
